<svg width="25" height="25" viewBox="0 0 25 25" fill="none" xmlns="http://www.w3.org/2000/svg">
<path d="M20.8332 7.29199H4.16649C3.0159 7.29199 2.08316 8.22473 2.08316 9.37533V19.792C2.08316 20.9426 3.0159 21.8753 4.16649 21.8753H20.8332C21.9838 21.8753 22.9165 20.9426 22.9165 19.792V9.37533C22.9165 8.22473 21.9838 7.29199 20.8332 7.29199Z" stroke="#FF862F" stroke-width="2" stroke-linecap="round" stroke-linejoin="round"/>
<path d="M16.6665 21.875V5.20833C16.6665 4.6558 16.447 4.12589 16.0563 3.73519C15.6656 3.34449 15.1357 3.125 14.5832 3.125H10.4165C9.86396 3.125 9.33406 3.34449 8.94335 3.73519C8.55265 4.12589 8.33316 4.6558 8.33316 5.20833V21.875" stroke="#FF862F" stroke-width="2" stroke-linecap="round" stroke-linejoin="round"/>
</svg>
